<svg width="32" height="32" viewBox="0 0 32 32" fill="none" xmlns="http://www.w3.org/2000/svg">
<g clip-path="url(#clip0_18_3)">
<g clip-path="url(#clip1_18_3)">
<g clip-path="url(#clip2_18_3)">
<path d="M0.168515 30.5V28.9268H0.655467C1.20485 28.9268 1.70429 28.8768 2.15378 28.7769C2.62825 28.6521 3.00282 28.4148 3.27752 28.0652C3.57718 27.6907 3.72701 27.1413 3.72701 26.4171V7.87547C3.72701 7.12631 3.57718 6.57693 3.27752 6.22732C3.00282 5.85275 2.62825 5.61551 2.15378 5.51562C1.70429 5.39076 1.20485 5.32833 0.655467 5.32833H0.168515V3.75511H8.7089L16.4627 25.181L24.1415 3.75511H32.4572V5.32833H31.9702C31.4208 5.32833 30.9089 5.39076 30.4344 5.51562C29.96 5.64048 29.5854 5.8902 29.3107 6.26478C29.036 6.63936 28.8987 7.2262 28.8987 8.0253V26.2298C28.8987 27.0039 29.036 27.5908 29.3107 27.9903C29.5854 28.3649 29.96 28.6146 30.4344 28.7395C30.9089 28.8643 31.4208 28.9268 31.9702 28.9268H32.4572V30.5H22.4934V28.9268H22.6058C23.1551 28.9268 23.6171 28.8768 23.9917 28.7769C24.3912 28.6521 24.7034 28.4273 24.9281 28.1027C25.1529 27.7531 25.2777 27.2412 25.3027 26.5669V6.56444L16.7249 30.5H14.7022L6.01194 6.63936V26.2298C6.01194 27.0039 6.11182 27.5908 6.3116 27.9903C6.53635 28.3649 6.8485 28.6146 7.24805 28.7395C7.67257 28.8643 8.15952 28.9268 8.7089 28.9268H8.82127V30.5H0.168515Z" fill="#0F0F0F"/>
</g>
<g clip-path="url(#clip3_18_3)">
<mask id="path-2-inside-1_18_3" fill="white">
<path d="M14.6875 30.5L5.88492 7.0514H5.73509C5.78503 7.55083 5.82249 8.18762 5.84746 8.96174C5.89741 9.73587 5.93486 10.5849 5.95983 11.5089C5.98481 12.4079 5.99729 13.3318 5.99729 14.2808V30.5H2.88829V3.75511H7.87018L16.1109 25.6679H16.2607L24.6513 3.75511H29.5957V30.5H26.262V14.056C26.262 13.182 26.2745 12.3205 26.2994 11.4714C26.3244 10.5974 26.3619 9.78582 26.4118 9.03666C26.4618 8.26253 26.4992 7.61326 26.5242 7.08885H26.3744L17.4594 30.5H14.6875Z"/>
</mask>
<path d="M14.6875 30.5L14.0624 30.7347L14.225 31.1677H14.6875V30.5ZM5.88492 7.0514L6.51002 6.81673L6.34746 6.3837H5.88492V7.0514ZM5.73509 7.0514V6.3837H4.9973L5.07071 7.11783L5.73509 7.0514ZM5.84746 8.96174L5.18012 8.98327L5.18046 8.99401L5.18116 9.00473L5.84746 8.96174ZM5.95983 11.5089L5.29239 11.5269L5.2924 11.5274L5.95983 11.5089ZM5.99729 30.5V31.1677H6.66498V30.5H5.99729ZM2.88829 30.5H2.2206V31.1677H2.88829V30.5ZM2.88829 3.75511V3.08742H2.2206V3.75511H2.88829ZM7.87018 3.75511L8.49514 3.52008L8.33243 3.08742H7.87018V3.75511ZM16.1109 25.6679L15.4859 25.903L15.6487 26.3356H16.1109V25.6679ZM16.2607 25.6679V26.3356H16.72L16.8843 25.9067L16.2607 25.6679ZM24.6513 3.75511V3.08742H24.192L24.0278 3.51635L24.6513 3.75511ZM29.5957 3.75511H30.2634V3.08742H29.5957V3.75511ZM29.5957 30.5V31.1677H30.2634V30.5H29.5957ZM26.262 30.5H25.5943V31.1677H26.262V30.5ZM26.2994 11.4714L26.9668 11.4911L26.9669 11.4905L26.2994 11.4714ZM26.4118 9.03666L27.078 9.08108L27.0781 9.07965L26.4118 9.03666ZM26.5242 7.08885L27.1911 7.12061L27.2244 6.42116H26.5242V7.08885ZM26.3744 7.08885V6.42116H25.9141L25.7504 6.85124L26.3744 7.08885ZM17.4594 30.5V31.1677H17.9196L18.0834 30.7376L17.4594 30.5ZM15.3126 30.2653L6.51002 6.81673L5.25982 7.28606L14.0624 30.7347L15.3126 30.2653ZM5.88492 6.3837H5.73509V7.71909H5.88492V6.3837ZM5.07071 7.11783C5.11859 7.59664 5.1554 8.21705 5.18012 8.98327L6.51481 8.94022C6.48958 8.15819 6.45147 7.50503 6.39946 6.98496L5.07071 7.11783ZM5.18116 9.00473C5.23047 9.76916 5.2676 10.6098 5.29239 11.5269L6.62728 11.4908C6.60213 10.5601 6.56434 9.70258 6.51377 8.91876L5.18116 9.00473ZM5.2924 11.5274C5.31719 12.4199 5.3296 13.3377 5.3296 14.2808H6.66498C6.66498 13.326 6.65242 12.3958 6.62727 11.4903L5.2924 11.5274ZM5.3296 14.2808V30.5H6.66498V14.2808H5.3296ZM5.99729 29.8323H2.88829V31.1677H5.99729V29.8323ZM3.55598 30.5V3.75511H2.2206V30.5H3.55598ZM2.88829 4.4228H7.87018V3.08742H2.88829V4.4228ZM7.24523 3.99013L15.4859 25.903L16.7359 25.4329L8.49514 3.52008L7.24523 3.99013ZM16.1109 26.3356H16.2607V25.0002H16.1109V26.3356ZM16.8843 25.9067L25.2748 3.99386L24.0278 3.51635L15.6372 25.4292L16.8843 25.9067ZM24.6513 4.4228H29.5957V3.08742H24.6513V4.4228ZM28.928 3.75511V30.5H30.2634V3.75511H28.928ZM29.5957 29.8323H26.262V31.1677H29.5957V29.8323ZM26.9297 30.5V14.056H25.5943V30.5H26.9297ZM26.9297 14.056C26.9297 13.1884 26.9421 12.3334 26.9668 11.4911L25.632 11.4518C25.6069 12.3076 25.5943 13.1756 25.5943 14.056H26.9297ZM26.9669 11.4905C26.9916 10.6236 27.0287 9.82056 27.078 9.08108L25.7456 8.99225C25.695 9.75108 25.6572 10.5712 25.632 11.4524L26.9669 11.4905ZM27.0781 9.07965C27.1282 8.30336 27.1659 7.65007 27.1911 7.12061L25.8573 7.0571C25.8325 7.57646 25.7953 8.2217 25.7455 8.99367L27.0781 9.07965ZM26.5242 6.42116H26.3744V7.75655H26.5242V6.42116ZM25.7504 6.85124L16.8354 30.2624L18.0834 30.7376L26.9983 7.32647L25.7504 6.85124ZM17.4594 29.8323H14.6875V31.1677H17.4594V29.8323Z" fill="#0F0F0F" mask="url(#path-2-inside-1_18_3)"/>
</g>
</g>
</g>
<defs>
<clipPath id="clip0_18_3">
<rect width="32" height="32" fill="white"/>
</clipPath>
<clipPath id="clip1_18_3">
<rect width="34.5098" height="51" fill="white" transform="translate(-1.25488 -9.5)"/>
</clipPath>
<clipPath id="clip2_18_3">
<rect width="17.9498" height="51" fill="white" transform="translate(-1.25488 -9.5)"/>
</clipPath>
<clipPath id="clip3_18_3">
<rect width="16.56" height="51" fill="white" transform="translate(16.6948 -9.5)"/>
</clipPath>
</defs>
</svg>
